<?xml version="1.0" encoding="utf-8"?>
<!-- Generator: Adobe Illustrator 23.0.2, SVG Export Plug-In . SVG Version: 6.00 Build 0)  -->
<svg version="1.1" id="Layer_1" xmlns="http://www.w3.org/2000/svg" xmlns:xlink="http://www.w3.org/1999/xlink" x="0px" y="0px"
	 viewBox="0 0 439.2 74.5" style="enable-background:new 0 0 439.2 74.5;" xml:space="preserve">
<style type="text/css">
	.st0{fill:#639941;}
	.st1{fill:#9A9B9A;}
</style>
<title>Green Foundation</title>
<g>
	<g id="Layer_1-2">
		<path class="st0" d="M14.6,74.5c-3.4,0-6.8-0.6-9.9-1.9c-0.9-0.3-1.5-1.2-1.4-2.2v-2.5c0-1.5,0.9-2,2.2-1.3c2.7,1.3,5.7,2,8.6,2
			c5.6,0,9.6-1.6,9.6-9.2v-1.7c-2.7,1.7-5.9,2.6-9.1,2.5C4.4,60.2,0,54.4,0,43.7v-3.3c0-10.7,4.5-16.5,16.2-16.5
			c4.7-0.1,9.2,1.2,13.2,3.6c0.8,0.4,1.3,1.3,1.2,2.2v29.8C30.6,69.7,25.6,74.5,14.6,74.5z M15.7,54.3c2.9,0,5.7-0.9,8-2.6V31.6
			c-2.3-1.2-4.8-1.8-7.4-1.8C9.2,29.8,7,33.6,7,40.4v3.3C7,50.5,9.1,54.3,15.7,54.3z"/>
		<path class="st0" d="M58.7,31.9c-2.8-1.4-5.9-2.1-9-2.1c-2.5,0-5.1,0.6-7.3,1.8v25.9c0.1,0.9-0.6,1.8-1.5,1.9c-0.1,0-0.3,0-0.4,0
			h-3.2c-0.9,0.1-1.8-0.6-1.9-1.5c0-0.1,0-0.3,0-0.4V29.7c-0.1-0.9,0.5-1.8,1.3-2.2c4.2-2.3,9-3.5,13.8-3.6c3.1-0.1,6.3,0.6,9.1,1.9
			c0.9,0.4,1.4,1.3,1.3,2.2v2.6C60.9,32.1,60,32.6,58.7,31.9z"/>
		<path class="st0" d="M78.7,54.5c2.9,0,5.8-0.6,8.4-1.9c1.3-0.6,2.2-0.1,2.2,1.3v2.4c0.1,1-0.5,1.9-1.4,2.2c-3,1.2-6.1,1.9-9.3,1.8
			c-11.9,0-17.7-6-17.7-16.5v-3.3c0-10.5,5.8-16.5,16.4-16.5c10.3,0,14.4,5.9,14.4,12.2c0,6.6-3.7,9.3-10,9.3H67.9
			C68.4,52.1,72.6,54.5,78.7,54.5z M67.9,39.8h12.2c3,0,4.6-0.9,4.6-3.8c0-3.7-2.5-6.4-7.4-6.4C71.6,29.6,67.9,32.9,67.9,39.8z"/>
		<path class="st0" d="M111.4,54.5c2.9,0,5.8-0.6,8.4-1.9c1.3-0.6,2.2-0.1,2.2,1.3v2.4c0.1,1-0.5,1.9-1.4,2.2
			c-3,1.2-6.1,1.9-9.3,1.8c-11.9,0-17.7-6-17.7-16.5v-3.3c0-10.5,5.8-16.5,16.4-16.5c10.3,0,14.4,5.9,14.4,12.2
			c0,6.6-3.7,9.3-10,9.3h-13.8C101.2,52.1,105.4,54.5,111.4,54.5z M100.6,39.8h12.2c3,0,4.6-0.9,4.6-3.8c0-3.7-2.5-6.4-7.4-6.4
			C104.4,29.6,100.7,32.9,100.6,39.8z"/>
		<path class="st0" d="M132.9,59.4h-3.2c-0.9,0.1-1.8-0.6-1.9-1.5c0-0.1,0-0.3,0-0.4V29.7c-0.1-0.9,0.4-1.8,1.3-2.2
			c4.3-2.3,9-3.6,13.9-3.6c10.6,0,14.7,4.8,14.7,14.5v19.1c0.1,0.9-0.6,1.8-1.5,1.9c-0.1,0-0.3,0-0.4,0h-3.2
			c-0.9,0.1-1.8-0.6-1.9-1.5c0-0.1,0-0.3,0-0.4V39c0-6.5-2.5-9.2-8.6-9.2c-2.5,0-5.1,0.6-7.3,1.8v26c0.1,0.9-0.6,1.8-1.5,1.9
			C133.2,59.4,133.1,59.4,132.9,59.4z"/>
		<path class="st1" d="M159.7,27.2v-1.3c-0.1-0.6,0.4-1.1,1-1.2c0.1,0,0.2,0,0.2,0h5.4v-4.6c0-6.4,2.4-10.2,9.2-10.2
			c1.8,0,3.6,0.2,5.3,0.7c0.6,0.1,1.1,0.7,1,1.3v1.3c0,0.9-0.5,1.2-1.4,1c-1.4-0.4-2.9-0.6-4.3-0.6c-4.3,0-5.6,2-5.6,6.4v4.6h10.1
			c0.6-0.1,1.1,0.4,1.2,1c0,0.1,0,0.2,0,0.2v1.3c0.1,0.6-0.4,1.1-1,1.2c-0.1,0-0.2,0-0.2,0h-10.1v29.8c0.1,0.6-0.4,1.1-1,1.2
			c-0.1,0-0.2,0-0.2,0h-1.8c-0.6,0.1-1.1-0.4-1.2-1c0-0.1,0-0.2,0-0.2V28.4h-5.4c-0.6,0.1-1.1-0.4-1.2-1
			C159.7,27.4,159.7,27.3,159.7,27.2z"/>
		<path class="st1" d="M197.4,23.9c10.3,0,15.6,6,15.6,16.4v3.5c0,10.4-5.2,16.4-15.6,16.4s-15.6-6-15.6-16.4v-3.5
			C181.8,29.9,187.1,23.9,197.4,23.9z M197.3,27.6c-6.8,0-11.3,3.9-11.3,12.7v3.5c0,8.9,4.6,12.7,11.4,12.7s11.3-3.9,11.3-12.7v-3.5
			C208.8,31.5,204.1,27.6,197.3,27.6z"/>
		<path class="st1" d="M241.3,24.7h1.7c0.6-0.1,1.1,0.4,1.2,1c0,0.1,0,0.2,0,0.2v29.3c0,0.6-0.3,1.2-0.8,1.5
			c-4.1,2.3-8.7,3.6-13.5,3.6c-10.1,0-13.8-4.6-13.8-14.4v-20c-0.1-0.6,0.4-1.1,1-1.2c0.1,0,0.2,0,0.2,0h1.8c0.6-0.1,1.1,0.4,1.2,1
			c0,0.1,0,0.2,0,0.2v19.5c0,7.8,2.7,11.1,10.2,11.1c3.3,0,6.6-0.8,9.4-2.4V25.9c-0.1-0.6,0.4-1.1,1-1.2
			C241.2,24.7,241.3,24.7,241.3,24.7z"/>
		<path class="st1" d="M252,59.4h-1.8c-0.6,0.1-1.1-0.4-1.2-1c0-0.1,0-0.2,0-0.2V29c0-0.6,0.3-1.2,0.8-1.4c4.1-2.3,8.7-3.6,13.4-3.6
			c10.1,0,13.9,4.6,13.9,14.3v20c0.1,0.6-0.4,1.1-1,1.2c-0.1,0-0.2,0-0.2,0h-1.8c-0.6,0.1-1.1-0.4-1.2-1c0-0.1,0-0.2,0-0.2V38.7
			c0-7.8-2.8-11.1-10.3-11.1c-3.3,0-6.5,0.8-9.4,2.4v28.2c0.1,0.6-0.4,1.1-1,1.2C252.2,59.4,252.1,59.4,252,59.4z"/>
		<path class="st1" d="M308.9,56.7c-3.9,2.4-8.4,3.7-12.9,3.5c-11.5,0-15.5-6-15.5-16.4v-3.5c0-10.5,4.1-16.4,14.2-16.4
			c3.9-0.1,7.7,1.1,10.8,3.5V11.7c-0.1-0.6,0.4-1.1,1-1.2c0.1,0,0.2,0,0.2,0h1.8c0.6-0.1,1.1,0.4,1.2,1c0,0.1,0,0.2,0,0.2v43.6
			C309.8,55.9,309.5,56.4,308.9,56.7z M296.1,56.5c3.3,0.1,6.5-0.8,9.4-2.4V31.3c-2.9-2.4-6.5-3.7-10.2-3.7
			c-7.8,0-10.6,4.6-10.6,12.7v3.5C284.7,51.9,287.5,56.5,296.1,56.5z"/>
		<path class="st1" d="M313.1,49.1c0-7,3.8-10.9,12.7-10.9c4.1,0,8.2,1,11.9,2.8v-2.8c0-7.4-2.8-10.6-10.9-10.6
			c-3.2,0-6.4,0.8-9.3,2.4c-0.9,0.5-1.4,0.2-1.4-0.8v-1.8c0-0.6,0.3-1.2,0.8-1.4c3.3-1.5,6.9-2.3,10.6-2.2
			c10.1,0,14.4,4.7,14.4,13.4v18c0,0.6-0.3,1.1-0.8,1.4c-4.3,2.4-9.2,3.7-14.1,3.6C316.4,60.2,313.1,56.1,313.1,49.1z M337.8,54
			v-9.5c-3.4-1.6-7.1-2.5-10.9-2.5c-6.9,0-9.6,2.1-9.6,7.1s2.5,7.4,9.9,7.4C330.9,56.5,334.5,55.7,337.8,54z"/>
		<path class="st1" d="M349.6,15.6c-0.1-0.6,0.4-1.1,1-1.2c0.1,0,0.2,0,0.2,0h1.8c0.6-0.1,1.1,0.4,1.2,1c0,0.1,0,0.2,0,0.2v9.1h9.5
			c0.6-0.1,1.1,0.4,1.2,1c0,0.1,0,0.2,0,0.2v1.3c0.1,0.6-0.4,1.1-1,1.2c-0.1,0-0.2,0-0.2,0h-9.5V50c0,4.4,1,6.4,5.3,6.4
			c1.5,0,2.9-0.2,4.4-0.5c0.8-0.2,1.3,0.1,1.3,1v1.2c0.1,0.6-0.4,1.2-1,1.3c-1.7,0.5-3.5,0.7-5.3,0.7c-6.7,0-8.9-3.8-8.9-10.2V28.4
			h-5.4c-0.6,0.1-1.1-0.4-1.2-1c0-0.1,0-0.2,0-0.2v-1.3c-0.1-0.6,0.4-1.1,1-1.2c0.1,0,0.2,0,0.2,0h5.4L349.6,15.6z"/>
		<path class="st1" d="M369.2,24.7h1.8c0.6-0.1,1.1,0.4,1.2,1c0,0.1,0,0.2,0,0.2v32.3c0.1,0.6-0.4,1.1-1,1.2c-0.1,0-0.2,0-0.2,0
			h-1.8c-0.6,0.1-1.1-0.4-1.2-1c0-0.1,0-0.1,0-0.2V25.9c-0.1-0.6,0.4-1.1,1-1.2C369,24.7,369.1,24.7,369.2,24.7z"/>
		<path class="st1" d="M392.2,23.9c10.3,0,15.5,6,15.5,16.4v3.5c0,10.4-5.2,16.4-15.5,16.4s-15.6-6-15.6-16.4v-3.5
			C376.6,29.9,381.9,23.9,392.2,23.9z M392.1,27.6c-6.8,0-11.3,3.9-11.3,12.7v3.5c0,8.9,4.6,12.7,11.4,12.7s11.3-3.9,11.3-12.7v-3.5
			C403.6,31.5,398.9,27.6,392.1,27.6z"/>
		<path class="st1" d="M414.1,59.4h-1.8c-0.6,0.1-1.1-0.4-1.2-1c0-0.1,0-0.2,0-0.2V29c0-0.6,0.3-1.2,0.8-1.4
			c4.1-2.3,8.7-3.6,13.4-3.6c10.1,0,13.9,4.6,13.9,14.3v20c0,0.6-0.4,1.1-1.1,1.1c-0.1,0-0.1,0-0.2,0h-1.8c-0.6,0.1-1.1-0.4-1.2-1
			c0-0.1,0-0.2,0-0.2V38.7c0-7.8-2.8-11.1-10.3-11.1c-3.3,0-6.5,0.8-9.4,2.4v28.2c0.1,0.6-0.4,1.1-1,1.2
			C414.2,59.4,414.2,59.4,414.1,59.4z"/>
		<path class="st0" d="M394.2,1.5c0.6-0.2,1.1-0.4,1.7-0.7c0,0.3,0,0.7-0.1,1c-0.2,1.5-0.5,3-0.9,4.4c-1,3.6-3.1,6.8-5.9,9.2
			c-1.7,1.1-3.7,1.8-5.7,2c-1.7,0.1-3.4,0.1-5.1-0.2c-0.5-0.1-1-0.1-1.6-0.1c-2,0.1-3.9,0.7-5.5,1.8c-0.8,0.5-1.6,1.1-2.3,1.9
			c-0.2,0.2-0.5,0.5-0.7,0.8c0.1-0.5,0.2-0.9,0.4-1.4c0.8-2.2,2-4.1,3.5-5.8c1-1.1,2.2-2,3.4-2.8c0.9-0.6,1.9-1.1,3-1.5
			c0.9-0.3,1.8-0.6,2.8-0.8c-1-0.1-2.1-0.1-3.1,0c-2.6,0.3-5,1.3-7,2.9c-0.6,0.5-1.2,1-1.7,1.6c-0.5,0.7-1,1.4-1.5,2.2
			c-0.3,0.4-0.5,0.7-0.8,1.1h-0.1c-0.1,0.1-0.1,0.2-0.2,0.3c-0.1-0.1,0-0.2,0-0.4c0.2-0.6,0.3-1.1,0.4-1.7c0.3-2,0.9-4,1.7-5.8
			c0.9-2,2.1-3.8,3.6-5.3c1.3-1.2,2.7-2.3,4.2-3.1c0.5-0.3,1-0.5,1.6-0.8c0.2-0.1,0.4-0.2,0.6-0.2c-0.2,0.2-0.4,0.4-0.6,0.6
			c-0.6,0.6-1.2,1.3-1.7,2.1c0.4-0.1,0.7-0.3,1.1-0.4c2.1-0.6,4.4-0.8,6.6-0.5c1.2,0.1,2.4,0.3,3.6,0.4
			C389.9,2.5,392.1,2.2,394.2,1.5z"/>
	</g>
</g>
</svg>
