<?xml version="1.0" encoding="utf-8"?>
<!-- Generator: Adobe Illustrator 23.0.2, SVG Export Plug-In . SVG Version: 6.00 Build 0)  -->
<svg version="1.1" id="Layer_1" xmlns="http://www.w3.org/2000/svg" xmlns:xlink="http://www.w3.org/1999/xlink" x="0px" y="0px"
	 viewBox="0 0 536.8 74.5" style="enable-background:new 0 0 536.8 74.5;" xml:space="preserve">
<style type="text/css">
	.st0{fill:#FFFFFF;}
	.st1{fill:#A6EB47;}
	.st2{enable-background:new    ;}
</style>
<title>Green Foundation</title>
<g>
	<g id="Layer_1-2">
		<path class="st0" d="M110.1,74.5c-3.4,0-6.8-0.6-9.9-1.9c-0.9-0.3-1.5-1.2-1.4-2.2v-2.5c0-1.5,0.9-2,2.2-1.3c2.7,1.3,5.7,2,8.7,2
			c5.6,0,9.6-1.6,9.6-9.2v-1.7c-2.7,1.7-5.9,2.6-9.1,2.5c-10.3,0-14.6-5.8-14.6-16.6v-3.3c0-10.7,4.5-16.5,16.2-16.5
			c4.7-0.1,9.2,1.2,13.2,3.6c0.8,0.4,1.3,1.3,1.2,2.2v29.8C126.2,69.7,121.1,74.5,110.1,74.5z M111.2,54.3c2.9,0,5.7-0.9,8-2.6V31.6
			c-2.3-1.2-4.8-1.8-7.4-1.8c-7.1,0-9.3,3.8-9.3,10.6v3.3C102.5,50.5,104.6,54.3,111.2,54.3z"/>
		<path class="st0" d="M154.2,31.9c-2.8-1.4-5.9-2.1-9.1-2.1c-2.5,0-5.1,0.6-7.3,1.8v25.9c0.1,0.9-0.6,1.8-1.5,1.9
			c-0.1,0-0.3,0-0.4,0h-3.2c-0.9,0.1-1.8-0.6-1.9-1.5c0-0.1,0-0.3,0-0.4V29.7c-0.1-0.9,0.5-1.8,1.3-2.2c4.2-2.3,9-3.5,13.8-3.6
			c3.1-0.1,6.3,0.6,9.1,1.9c0.9,0.4,1.4,1.3,1.3,2.2v2.6C156.4,32.1,155.5,32.6,154.2,31.9z"/>
		<path class="st0" d="M174.2,54.5c2.9,0,5.8-0.6,8.4-1.9c1.4-0.6,2.2-0.1,2.2,1.3v2.4c0.1,1-0.5,1.9-1.4,2.2
			c-3,1.2-6.1,1.9-9.3,1.8c-11.9,0-17.7-6-17.7-16.5v-3.3c0-10.5,5.8-16.5,16.4-16.5c10.3,0,14.4,5.9,14.4,12.2
			c0,6.6-3.7,9.3-10,9.3h-13.8C163.9,52.1,168.1,54.5,174.2,54.5z M163.4,39.8h12.2c3,0,4.6-0.9,4.6-3.8c0-3.7-2.5-6.4-7.4-6.4
			C167.1,29.6,163.5,32.9,163.4,39.8z"/>
		<path class="st0" d="M207,54.5c2.9,0,5.8-0.6,8.4-1.9c1.3-0.6,2.2-0.1,2.2,1.3v2.4c0.1,1-0.5,1.9-1.4,2.2c-3,1.2-6.1,1.9-9.3,1.8
			c-11.9,0-17.7-6-17.7-16.5v-3.3C189.2,30,195,24,205.6,24c10.3,0,14.4,5.9,14.4,12.2c0,6.6-3.7,9.3-10,9.3h-13.8
			C196.7,52.1,200.9,54.5,207,54.5z M196.2,39.8h12.2c3,0,4.6-0.9,4.6-3.8c0-3.7-2.5-6.4-7.4-6.4C199.9,29.6,196.2,32.9,196.2,39.8z
			"/>
		<path class="st0" d="M228.4,59.4h-3.2c-0.9,0.1-1.8-0.6-1.9-1.5c0-0.1,0-0.3,0-0.4V29.7c-0.1-0.9,0.4-1.8,1.3-2.2
			c4.3-2.3,9-3.6,13.9-3.6c10.6,0,14.7,4.8,14.7,14.5v19.1c0.1,0.9-0.6,1.8-1.5,1.9c-0.1,0-0.3,0-0.4,0h-3.2
			c-0.9,0.1-1.8-0.6-1.9-1.5c0-0.1,0-0.3,0-0.4V39c0-6.5-2.5-9.2-8.6-9.2c-2.5,0-5.1,0.6-7.3,1.8v26c0.1,0.9-0.6,1.8-1.5,1.9
			C228.7,59.4,228.6,59.4,228.4,59.4z"/>
		<path class="st0" d="M255.2,27.2v-1.3c-0.1-0.6,0.4-1.1,1-1.2c0.1,0,0.2,0,0.2,0h5.4v-4.6c0-6.4,2.4-10.2,9.2-10.2
			c1.8,0,3.6,0.2,5.3,0.7c0.6,0.1,1.1,0.7,1,1.3v1.3c0,0.9-0.5,1.2-1.4,1c-1.4-0.4-2.9-0.6-4.3-0.6c-4.3,0-5.6,2-5.6,6.4v4.6h10.1
			c0.6-0.1,1.1,0.4,1.2,1c0,0.1,0,0.2,0,0.2v1.3c0.1,0.6-0.4,1.1-1,1.2c-0.1,0-0.2,0-0.2,0H266v29.8c0.1,0.6-0.4,1.1-1,1.2
			c-0.1,0-0.2,0-0.2,0H263c-0.6,0.1-1.1-0.4-1.2-1c0-0.1,0-0.2,0-0.2V28.4h-5.4c-0.6,0.1-1.1-0.4-1.2-1
			C255.2,27.4,255.2,27.3,255.2,27.2z"/>
		<path class="st0" d="M292.9,23.9c10.3,0,15.6,6,15.6,16.4v3.5c0,10.4-5.2,16.4-15.6,16.4s-15.6-6-15.6-16.4v-3.5
			C277.3,29.9,282.6,23.9,292.9,23.9z M292.8,27.6c-6.8,0-11.3,3.9-11.3,12.7v3.5c0,8.9,4.6,12.7,11.4,12.7s11.3-3.9,11.3-12.7v-3.5
			C304.3,31.5,299.6,27.6,292.8,27.6z"/>
		<path class="st0" d="M336.9,24.7h1.7c0.6-0.1,1.1,0.4,1.2,1c0,0.1,0,0.2,0,0.2v29.3c0,0.6-0.3,1.2-0.8,1.5
			c-4.1,2.3-8.7,3.6-13.5,3.6c-10.1,0-13.8-4.6-13.8-14.4v-20c-0.1-0.6,0.4-1.1,1-1.2c0.1,0,0.2,0,0.2,0h1.8c0.6-0.1,1.1,0.4,1.2,1
			c0,0.1,0,0.2,0,0.2v19.5c0,7.8,2.7,11.1,10.2,11.1c3.3,0,6.6-0.8,9.4-2.4V25.9c-0.1-0.6,0.4-1.1,1-1.2
			C336.7,24.7,336.8,24.7,336.9,24.7z"/>
		<path class="st0" d="M347.5,59.4h-1.8c-0.6,0.1-1.1-0.4-1.2-1c0-0.1,0-0.2,0-0.2V29c0-0.6,0.3-1.2,0.8-1.4
			c4.1-2.3,8.7-3.6,13.4-3.6c10.1,0,13.9,4.6,13.9,14.3v20c0.1,0.6-0.4,1.1-1,1.2c-0.1,0-0.2,0-0.2,0h-1.8c-0.6,0.1-1.1-0.4-1.2-1
			c0-0.1,0-0.2,0-0.2V38.7c0-7.8-2.8-11.1-10.3-11.1c-3.3,0-6.5,0.8-9.4,2.4v28.2c0.1,0.6-0.4,1.1-1,1.2
			C347.7,59.4,347.6,59.4,347.5,59.4z"/>
		<path class="st0" d="M404.5,56.7c-3.9,2.4-8.4,3.7-12.9,3.5c-11.5,0-15.5-6-15.5-16.4v-3.5c0-10.5,4.1-16.4,14.2-16.4
			c3.9-0.1,7.7,1.1,10.8,3.5V11.7c-0.1-0.6,0.4-1.1,1-1.2c0.1,0,0.2,0,0.2,0h1.8c0.6-0.1,1.1,0.4,1.2,1c0,0.1,0,0.2,0,0.2v43.6
			C405.3,55.9,405,56.4,404.5,56.7z M391.7,56.5c3.3,0.1,6.5-0.8,9.4-2.4V31.3c-2.9-2.4-6.5-3.7-10.2-3.7c-7.8,0-10.6,4.6-10.6,12.7
			v3.5C380.3,51.9,383,56.5,391.7,56.5z"/>
		<path class="st0" d="M408.6,49.1c0-7,3.8-10.9,12.7-10.9c4.1,0,8.2,1,11.9,2.8v-2.8c0-7.4-2.8-10.6-10.9-10.6
			c-3.2,0-6.4,0.8-9.3,2.4c-0.9,0.5-1.4,0.2-1.4-0.8v-1.8c0-0.6,0.3-1.2,0.8-1.4c3.3-1.5,6.9-2.3,10.6-2.2
			c10.1,0,14.4,4.7,14.4,13.4v18c0,0.6-0.3,1.1-0.8,1.4c-4.3,2.4-9.2,3.7-14.1,3.6C411.9,60.2,408.6,56.1,408.6,49.1z M433.3,54
			v-9.5c-3.4-1.6-7.1-2.5-10.9-2.5c-6.9,0-9.6,2.1-9.6,7.1s2.5,7.4,9.9,7.4C426.4,56.5,430,55.7,433.3,54z"/>
		<path class="st0" d="M445.1,15.6c-0.1-0.6,0.4-1.1,1-1.2c0.1,0,0.2,0,0.2,0h1.8c0.6-0.1,1.1,0.4,1.2,1c0,0.1,0,0.2,0,0.2v9.1h9.5
			c0.6-0.1,1.1,0.4,1.2,1c0,0.1,0,0.2,0,0.2v1.3c0.1,0.6-0.4,1.1-1,1.2c-0.1,0-0.2,0-0.2,0h-9.5V50c0,4.4,1,6.4,5.3,6.4
			c1.5,0,2.9-0.2,4.4-0.5c0.8-0.2,1.3,0.1,1.3,1v1.2c0.1,0.6-0.4,1.2-1,1.3c-1.7,0.5-3.5,0.7-5.3,0.7c-6.7,0-8.9-3.8-8.9-10.2V28.4
			h-5.4c-0.6,0.1-1.1-0.4-1.2-1c0-0.1,0-0.2,0-0.2v-1.3c-0.1-0.6,0.4-1.1,1-1.2c0.1,0,0.2,0,0.2,0h5.4V15.6z"/>
		<path class="st0" d="M464.7,24.7h1.8c0.6-0.1,1.1,0.4,1.2,1c0,0.1,0,0.2,0,0.2v32.3c0.1,0.6-0.4,1.1-1,1.2c-0.1,0-0.2,0-0.2,0
			h-1.8c-0.6,0.1-1.1-0.4-1.2-1c0-0.1,0-0.1,0-0.2V25.9c-0.1-0.6,0.4-1.1,1-1.2C464.6,24.7,464.6,24.7,464.7,24.7z"/>
		<path class="st0" d="M487.7,23.9c10.3,0,15.5,6,15.5,16.4v3.5c0,10.4-5.2,16.4-15.5,16.4s-15.6-6-15.6-16.4v-3.5
			C472.1,29.9,477.4,23.9,487.7,23.9z M487.6,27.6c-6.8,0-11.3,3.9-11.3,12.7v3.5c0,8.9,4.6,12.7,11.4,12.7S499,52.6,499,43.8v-3.5
			C499.1,31.5,494.5,27.6,487.6,27.6z"/>
		<path class="st0" d="M509.6,59.4h-1.8c-0.6,0.1-1.1-0.4-1.2-1c0-0.1,0-0.2,0-0.2V29c0-0.6,0.3-1.2,0.8-1.4
			c4.1-2.3,8.7-3.6,13.4-3.6c10.1,0,13.9,4.6,13.9,14.3v20c0,0.6-0.4,1.1-1.1,1.1c-0.1,0-0.1,0-0.2,0h-1.8c-0.6,0.1-1.1-0.4-1.2-1
			c0-0.1,0-0.2,0-0.2V38.7c0-7.8-2.8-11.1-10.3-11.1c-3.3,0-6.5,0.8-9.4,2.4v28.2c0.1,0.6-0.4,1.1-1,1.2
			C509.8,59.4,509.7,59.4,509.6,59.4z"/>
		<path class="st1" d="M489.7,1.5c0.6-0.2,1.1-0.4,1.7-0.7c0,0.3,0,0.7-0.1,1c-0.2,1.5-0.5,3-0.9,4.4c-1,3.6-3.1,6.8-5.9,9.2
			c-1.7,1.1-3.7,1.8-5.7,2c-1.7,0.1-3.4,0.1-5.1-0.2c-0.5-0.1-1-0.1-1.6-0.1c-2,0.1-3.9,0.7-5.5,1.8c-0.8,0.5-1.6,1.1-2.3,1.9
			c-0.2,0.2-0.5,0.5-0.7,0.8c0.1-0.5,0.2-0.9,0.4-1.4c0.8-2.2,2-4.1,3.5-5.8c1-1.1,2.2-2,3.4-2.8c0.9-0.6,1.9-1.1,3-1.5
			c0.9-0.3,1.8-0.6,2.8-0.8c-1-0.1-2.1-0.1-3.1,0c-2.6,0.3-5,1.3-7,2.9c-0.6,0.5-1.2,1-1.7,1.6c-0.5,0.7-1,1.4-1.5,2.2
			c-0.3,0.4-0.5,0.7-0.8,1.1h-0.1c-0.1,0.1-0.1,0.2-0.2,0.3c-0.1-0.1,0-0.2,0-0.4c0.2-0.6,0.3-1.1,0.4-1.7c0.3-2,0.9-4,1.7-5.8
			c0.9-2,2.1-3.8,3.6-5.3c1.3-1.2,2.7-2.3,4.2-3.1c0.5-0.3,1-0.5,1.6-0.8c0.2-0.1,0.4-0.2,0.6-0.2c-0.2,0.2-0.4,0.4-0.6,0.6
			c-0.6,0.6-1.2,1.3-1.7,2.1c0.4-0.1,0.7-0.3,1.1-0.4c2.1-0.6,4.4-0.8,6.6-0.5c1.2,0.1,2.4,0.3,3.6,0.4
			C485.4,2.5,487.6,2.2,489.7,1.5z"/>
	</g>
</g>
<g class="st2">
	<path class="st0" d="M12.6,15.8c0-0.7,0.4-1.2,1.2-1.2h1.7c0.7,0,1.2,0.4,1.2,1.2v8.7h9.1c0.7,0,1.2,0.4,1.2,1.2V27
		c0,0.7-0.4,1.2-1.2,1.2h-9.1v20.6c0,4.2,1,6.1,5,6.1c1.5,0,2.8-0.2,4.2-0.5c0.8-0.2,1.3,0.1,1.3,1v1.2c0,0.7-0.3,1.1-1,1.3
		c-1.5,0.4-3.3,0.7-5,0.7c-6.4,0-8.5-3.6-8.5-9.7V28.1H7.5c-0.7,0-1.2-0.4-1.2-1.2v-1.3c0-0.7,0.4-1.2,1.2-1.2h5.2L12.6,15.8
		L12.6,15.8z"/>
	<path class="st0" d="M54,56.5V37.9c0-7.3-2.3-10.5-9.2-10.5c-3.5,0-7,1.4-9.5,3.6v25.6c0,0.7-0.4,1.2-1.2,1.2h-1.7
		c-0.7,0-1.2-0.4-1.2-1.2V12.1c0-0.7,0.4-1.2,1.2-1.2h1.7c0.7,0,1.2,0.4,1.2,1.2v15c2.7-1.9,6.5-3.4,10.5-3.4
		C54.6,23.7,58,28,58,37.4v19c0,0.7-0.4,1.2-1.2,1.2h-1.7C54.4,57.6,54,57.2,54,56.5z"/>
	<path class="st0" d="M79.7,54.9c2.7,0,5.4-0.6,8.1-2.1c0.8-0.4,1.4-0.1,1.4,0.8v1.6c0,0.6-0.3,1.1-0.8,1.3
		c-2.7,1.2-5.8,1.9-8.7,1.9c-11.1,0-16.4-5.6-16.4-15.6v-3.4c0-9.9,5.3-15.7,15.1-15.7c9.3,0,13,5.6,13,11.4c0,6.1-3.5,8.3-9.3,8.3
		H67.3C67.3,50.8,71.9,54.9,79.7,54.9z M81.5,40c3.8,0,5.8-1.2,5.8-4.8c0-4.7-2.9-7.9-8.9-7.9c-6.6,0-11.1,3.8-11.1,12V40H81.5z"/>
</g>
</svg>
